<svg xmlns="http://www.w3.org/2000/svg" viewBox="0 0 256 256" width="256" height="256">
  <defs>
    <linearGradient id="sky" x1="0" y1="0" x2="0" y2="1">
      <stop offset="0" stop-color="#fde9a7"/>
      <stop offset="0.6" stop-color="#f5a78d"/>
      <stop offset="1" stop-color="#6c5b8a"/>
    </linearGradient>
  </defs>
  <rect width="256" height="256" fill="url(#sky)"/>
  <circle cx="180" cy="90" r="22" fill="#fff7c2" opacity="0.9"/>
  <g fill="#1f2230">
    <rect x="20" y="150" width="28" height="90"/>
    <rect x="52" y="120" width="36" height="120"/>
    <rect x="92" y="140" width="24" height="100"/>
    <rect x="120" y="100" width="44" height="140"/>
    <rect x="168" y="130" width="30" height="110"/>
    <rect x="202" y="150" width="36" height="90"/>
  </g>
  <g fill="#fde9a7" opacity="0.85">
    <rect x="58" y="135" width="4" height="4"/><rect x="66" y="135" width="4" height="4"/><rect x="74" y="135" width="4" height="4"/>
    <rect x="58" y="150" width="4" height="4"/><rect x="74" y="150" width="4" height="4"/>
    <rect x="128" y="115" width="4" height="4"/><rect x="140" y="115" width="4" height="4"/><rect x="152" y="115" width="4" height="4"/>
    <rect x="128" y="130" width="4" height="4"/><rect x="152" y="130" width="4" height="4"/>
    <rect x="128" y="145" width="4" height="4"/><rect x="140" y="145" width="4" height="4"/>
  </g>
</svg>
