<svg xmlns="http://www.w3.org/2000/svg" viewBox="0 0 256 256" width="256" height="256">
  <rect width="256" height="256" fill="#f2e8d5"/>
  <g>
    <rect x="0" y="0" width="64" height="64" fill="#d94e4e"/>
    <rect x="64" y="0" width="64" height="64" fill="#f2c94c"/>
    <rect x="128" y="0" width="64" height="64" fill="#2f9e8f"/>
    <rect x="192" y="0" width="64" height="64" fill="#3d5a80"/>
    <rect x="0" y="64" width="64" height="64" fill="#f2c94c"/>
    <rect x="64" y="64" width="64" height="64" fill="#3d5a80"/>
    <rect x="128" y="64" width="64" height="64" fill="#d94e4e"/>
    <rect x="192" y="64" width="64" height="64" fill="#2f9e8f"/>
    <rect x="0" y="128" width="64" height="64" fill="#3d5a80"/>
    <rect x="64" y="128" width="64" height="64" fill="#2f9e8f"/>
    <rect x="128" y="128" width="64" height="64" fill="#f2c94c"/>
    <rect x="192" y="128" width="64" height="64" fill="#d94e4e"/>
    <rect x="0" y="192" width="64" height="64" fill="#2f9e8f"/>
    <rect x="64" y="192" width="64" height="64" fill="#d94e4e"/>
    <rect x="128" y="192" width="64" height="64" fill="#3d5a80"/>
    <rect x="192" y="192" width="64" height="64" fill="#f2c94c"/>
  </g>
  <g stroke="#f2e8d5" stroke-width="3" fill="none">
    <line x1="64" y1="0" x2="64" y2="256"/>
    <line x1="128" y1="0" x2="128" y2="256"/>
    <line x1="192" y1="0" x2="192" y2="256"/>
    <line x1="0" y1="64" x2="256" y2="64"/>
    <line x1="0" y1="128" x2="256" y2="128"/>
    <line x1="0" y1="192" x2="256" y2="192"/>
  </g>
</svg>
